<?xml version="1.0" encoding="UTF-8"?>
<svg xmlns="http://www.w3.org/2000/svg" version="1.1" width="100" height="100" viewBox="0 0 100 100"><rect x="0" y="0" width="100" height="100" fill="#ffffff"/><g transform="scale(4)"><g transform="translate(0,0)"><path fill-rule="evenodd" d="M8 0L8 1L9 1L9 2L8 2L8 5L10 5L10 8L8 8L8 9L7 9L7 8L6 8L6 9L7 9L7 10L5 10L5 9L4 9L4 8L0 8L0 11L1 11L1 12L0 12L0 13L2 13L2 14L1 14L1 15L0 15L0 16L1 16L1 15L2 15L2 14L3 14L3 15L5 15L5 16L6 16L6 17L8 17L8 18L9 18L9 21L8 21L8 25L9 25L9 24L11 24L11 25L15 25L15 24L14 24L14 23L15 23L15 22L12 22L12 20L13 20L13 19L15 19L15 20L14 20L14 21L15 21L15 20L16 20L16 21L17 21L17 25L25 25L25 24L23 24L23 23L24 23L24 22L23 22L23 21L22 21L22 22L21 22L21 19L23 19L23 20L24 20L24 19L25 19L25 15L24 15L24 14L25 14L25 12L23 12L23 11L21 11L21 10L20 10L20 9L23 9L23 10L24 10L24 9L25 9L25 8L24 8L24 9L23 9L23 8L20 8L20 9L19 9L19 10L18 10L18 12L17 12L17 9L18 9L18 8L16 8L16 7L17 7L17 6L16 6L16 7L15 7L15 5L16 5L16 4L15 4L15 3L16 3L16 2L15 2L15 3L14 3L14 2L13 2L13 0L11 0L11 1L9 1L9 0ZM14 0L14 1L15 1L15 0ZM16 0L16 1L17 1L17 0ZM9 2L9 4L11 4L11 7L12 7L12 6L13 6L13 9L12 9L12 8L11 8L11 9L12 9L12 10L14 10L14 8L15 8L15 13L13 13L13 14L12 14L12 11L11 11L11 10L10 10L10 11L8 11L8 10L7 10L7 11L6 11L6 12L4 12L4 14L5 14L5 15L6 15L6 16L7 16L7 15L6 15L6 14L11 14L11 16L10 16L10 15L8 15L8 16L10 16L10 17L9 17L9 18L10 18L10 19L12 19L12 18L10 18L10 17L13 17L13 18L15 18L15 19L16 19L16 15L17 15L17 14L15 14L15 13L17 13L17 12L16 12L16 8L15 8L15 7L14 7L14 6L13 6L13 5L14 5L14 4L13 4L13 5L12 5L12 2ZM8 6L8 7L9 7L9 6ZM1 9L1 10L2 10L2 13L3 13L3 11L4 11L4 10L2 10L2 9ZM7 11L7 12L6 12L6 13L10 13L10 12L11 12L11 11L10 11L10 12L8 12L8 11ZM19 12L19 13L20 13L20 12ZM21 12L21 15L20 15L20 14L18 14L18 15L19 15L19 16L21 16L21 15L22 15L22 16L24 16L24 15L22 15L22 14L24 14L24 13L22 13L22 12ZM13 14L13 15L12 15L12 16L13 16L13 17L15 17L15 16L13 16L13 15L15 15L15 14ZM2 16L2 17L3 17L3 16ZM17 17L17 20L20 20L20 17ZM21 17L21 18L24 18L24 17ZM18 18L18 19L19 19L19 18ZM10 20L10 23L11 23L11 24L13 24L13 23L11 23L11 20ZM19 21L19 22L20 22L20 21ZM19 23L19 24L20 24L20 23ZM21 23L21 24L22 24L22 23ZM0 0L0 7L7 7L7 0ZM1 1L1 6L6 6L6 1ZM2 2L2 5L5 5L5 2ZM18 0L18 7L25 7L25 0ZM19 1L19 6L24 6L24 1ZM20 2L20 5L23 5L23 2ZM0 18L0 25L7 25L7 18ZM1 19L1 24L6 24L6 19ZM2 20L2 23L5 23L5 20Z" fill="#000000"/></g></g></svg>
